<svg xmlns="http://www.w3.org/2000/svg" width="960" height="560" viewBox="0 0 960 560"><circle fill="#FFF" cx="480" cy="285.664" r="56.679"/><path fill="#DFD15B" d="M480 396.58v-54.237c-31.303 0-56.68-25.376-56.68-56.68h-54.234c0 61.258 49.658 110.916 110.914 110.916z"/><path fill="#F6B1AF" d="M480 228.985V174.75c-61.256 0-110.915 49.658-110.915 110.914h54.235c0-31.303 25.377-56.68 56.68-56.68z"/><path fill="#9DD6C8" d="M480 174.75v54.235c31.303 0 56.678 25.376 56.678 56.68h54.236c0-61.257-49.658-110.915-110.914-110.915z"/><path fill="#F5DCD6" d="M536.678 285.664c0 31.303-25.375 56.68-56.678 56.68v54.235c61.256-.002 110.914-49.66 110.914-110.916h-54.236z"/></svg>